<svg xml:space="preserve" style="enable-background:new 0 0 89.95 89.57;" viewBox="0 0 89.95 89.57" height="89.57px" width="89.95px" y="0px" x="0px" xmlns:xlink="http://www.w3.org/1999/xlink" xmlns="http://www.w3.org/2000/svg" id="Layer_1" version="1.1">
<style type="text/css">
	.st0{fill:#85AF48;}
	.st1{fill:#476931;}
	.st2{fill:#FFFFFF;}
	.st3{fill:#020202;}
</style>
<path d="M85.86,77.29c0,4.35-3.53,7.88-7.88,7.88H9.43c-4.36,0-7.88-3.53-7.88-7.88V10.57c0-4.36,3.53-7.89,7.88-7.89
	h68.54c4.35,0,7.88,3.53,7.88,7.89V77.29z" class="st0"></path>
<path d="M77.98,2.69L32.99,2.63c0.16,0.24-13.26,0.07-13,0.15C36,7.92,36.88,17.34,38.45,41.76
	c0.91,14.15,2.45,19.44,5.06,32.8c1.57,8.03,12.21,10.64,20.31,10.62h14.16c4.35,0,7.88-3.53,7.88-7.88V10.57
	C85.86,6.22,82.33,2.69,77.98,2.69z" class="st1"></path>
<path d="M69.94,4.12c0,0,2.29-0.41,6.67-0.22c3.42,0.15,7.97,0,8.2,8.65c0.22,8.66-0.45,20.72-0.45,20.72
	s0.35-19.73-0.78-23.21C82.22,5.9,81.82,4.18,69.94,4.12z" class="st2"></path>
<path d="M17.61,83.33c0,0-2.29,0.41-6.67,0.22c-3.42-0.15-7.98,0-8.2-8.65C2.52,66.24,3.2,54.17,3.2,54.17
	S2.84,73.9,3.98,77.38C5.34,81.55,5.73,83.27,17.61,83.33z" class="st2"></path>
<g>
	<path d="M27.37,53.56c0,6.94-1.48,12.48-4.43,16.62c-2.95,4.14-7.5,6.93-13.63,8.37v-7.46
		c3.91-0.81,6.74-2.63,8.49-5.47c1.75-2.83,2.62-6.86,2.62-12.06V11.99h6.94V53.56z" class="st3"></path>
	<path d="M49.86,11.99c-2.89,2.78-5.15,6.02-6.77,9.72c-1.62,3.7-2.43,7.44-2.43,11.2c0,3.59,1.27,8.39,3.82,14.41
		c2.55,6.02,3.82,10.56,3.82,13.63c0,5.61-1.39,10.91-4.17,15.89h-8.94c4.11-4.98,6.16-10.13,6.16-15.45
		c0-1.16-1.73-6.51-5.18-16.06c-1.64-4.51-2.46-8.65-2.46-12.41c0-3.99,0.52-7.71,1.56-11.16c1.04-3.44,2.72-6.7,5.04-9.77H49.86z" class="st3"></path>
	<path d="M82.85,67.9c0,2.72-0.96,4.89-2.86,6.51c-1.91,1.62-4.54,2.43-7.9,2.43H59.84V63.39h-5.99l-4.17-6.68h10.16
		V9.13c0.81,0,2.78,0.81,5.9,2.43c4.63,2.43,8.33,5.38,11.11,8.85c3.99,5.03,5.99,10.97,5.99,17.8c0,6.77-2.43,12.93-7.29,18.49
		c2.52,0.69,4.36,1.69,5.53,3c1.17,1.3,1.76,3.05,1.76,5.25V67.9z M75.9,38.99c0-4.86-1.5-9.38-4.51-13.54
		c-1-1.39-2.54-3.01-4.6-4.86V56.7c2-1.74,3.51-3.27,4.51-4.6C74.37,47.99,75.9,43.62,75.9,38.99z M75.9,67.12v-1.04
		c0-1.79-1.06-2.69-3.19-2.69h-5.93v6.42h5.93C74.84,69.81,75.9,68.91,75.9,67.12z" class="st3"></path>
</g>
<g>
	<path d="M24.59,51.78c0,6.94-1.48,12.48-4.43,16.62c-2.95,4.14-7.5,6.93-13.63,8.37v-7.46
		c3.91-0.81,6.74-2.63,8.49-5.47c1.75-2.83,2.62-6.85,2.62-12.06V10.21h6.94V51.78z" class="st2"></path>
	<path d="M47.07,10.21c-2.89,2.78-5.15,6.02-6.77,9.72c-1.62,3.7-2.43,7.44-2.43,11.2c0,3.59,1.27,8.39,3.82,14.41
		c2.55,6.02,3.82,10.56,3.82,13.63c0,5.61-1.39,10.91-4.17,15.89H32.4c4.11-4.98,6.16-10.13,6.16-15.45c0-1.16-1.73-6.51-5.18-16.06
		c-1.64-4.51-2.46-8.65-2.46-12.41c0-3.99,0.52-7.71,1.56-11.16c1.04-3.44,2.72-6.7,5.04-9.77H47.07z" class="st2"></path>
	<path d="M80.06,66.11c0,2.72-0.96,4.89-2.86,6.51c-1.91,1.62-4.54,2.43-7.9,2.43H57.05V61.6h-5.99l-4.17-6.68h10.16
		V7.34c0.81,0,2.78,0.81,5.9,2.43c4.63,2.43,8.33,5.38,11.11,8.85c3.99,5.03,5.99,10.97,5.99,17.8c0,6.77-2.43,12.93-7.29,18.49
		c2.52,0.69,4.36,1.69,5.53,3c1.17,1.3,1.76,3.05,1.76,5.25V66.11z M73.11,37.2c0-4.86-1.5-9.38-4.51-13.54
		c-1-1.39-2.54-3.01-4.6-4.86v36.11c2-1.74,3.51-3.27,4.51-4.6C71.58,46.2,73.11,41.84,73.11,37.2z M73.11,65.33v-1.04
		c0-1.79-1.06-2.69-3.19-2.69H64v6.42h5.93C72.05,68.02,73.11,67.13,73.11,65.33z" class="st2"></path>
</g>
</svg>
