<svg xml:space="preserve" style="enable-background:new 0 0 513 138;" viewBox="0 0 513 138" height="138px" width="513px" y="0px" x="0px" xmlns:xlink="http://www.w3.org/1999/xlink" xmlns="http://www.w3.org/2000/svg" id="Layer_1" version="1.1">
<style type="text/css">
	.st0{fill:#85AF48;}
	.st1{fill:#476931;}
	.st2{fill:#FFFFFF;}
	.st3{fill:#020202;}
	.st4{font-family:'Bahnschrift';}
	.st5{font-size:38.0462px;}
	.st6{fill:#231F20;}
	.st7{font-size:20.4146px;}
</style>
<path d="M118.25,99.38c0,4.35-3.53,7.88-7.88,7.88H41.82c-4.35,0-7.88-3.53-7.88-7.88V32.66c0-4.36,3.53-7.89,7.88-7.89
	h68.54c4.35,0,7.88,3.53,7.88,7.89V99.38z" class="st0"></path>
<path d="M110.37,24.77l-44.99-0.05c0.16,0.24-13.26,0.07-13,0.15C68.4,30,69.27,39.42,70.84,63.85
	c0.91,14.15,2.45,19.44,5.06,32.8c1.57,8.03,12.21,10.64,20.31,10.62h14.16c4.35,0,7.88-3.53,7.88-7.88V32.66
	C118.25,28.3,114.72,24.77,110.37,24.77z" class="st1"></path>
<path d="M102.34,26.2c0,0,2.29-0.41,6.67-0.22c3.42,0.15,7.97,0,8.2,8.65c0.22,8.66-0.45,20.72-0.45,20.72
	s0.35-19.73-0.78-23.21C114.61,27.98,114.22,26.26,102.34,26.2z" class="st2"></path>
<path d="M50,105.41c0,0-2.29,0.41-6.67,0.22c-3.42-0.15-7.98,0-8.2-8.65c-0.22-8.65,0.45-20.72,0.45-20.72
	s-0.35,19.73,0.78,23.21C37.73,103.63,38.12,105.35,50,105.41z" class="st2"></path>
<rect height="2.58" width="61.34" class="st1" y="94.2" x="430.25"></rect>
<rect height="2.58" width="67.13" class="st1" y="94.37" x="137.62"></rect>
<g>
	<path d="M59.77,75.65c0,6.94-1.48,12.48-4.43,16.62c-2.95,4.14-7.5,6.93-13.63,8.37v-7.46
		c3.91-0.81,6.74-2.63,8.49-5.47c1.75-2.83,2.62-6.86,2.62-12.06V34.08h6.94V75.65z" class="st3"></path>
	<path d="M82.25,34.08c-2.89,2.78-5.15,6.02-6.77,9.72c-1.62,3.7-2.43,7.44-2.43,11.2c0,3.59,1.27,8.39,3.82,14.41
		c2.55,6.02,3.82,10.56,3.82,13.63c0,5.61-1.39,10.91-4.17,15.89h-8.94c4.11-4.98,6.16-10.13,6.16-15.45
		c0-1.16-1.73-6.51-5.18-16.06C66.92,62.9,66.1,58.76,66.1,55c0-3.99,0.52-7.71,1.56-11.16c1.04-3.44,2.72-6.7,5.04-9.77H82.25z" class="st3"></path>
	<path d="M115.24,89.98c0,2.72-0.96,4.89-2.86,6.51c-1.91,1.62-4.54,2.43-7.9,2.43H92.23V85.47h-5.99l-4.17-6.68h10.16
		V31.21c0.81,0,2.78,0.81,5.9,2.43c4.63,2.43,8.33,5.38,11.11,8.85c3.99,5.03,5.99,10.97,5.99,17.8c0,6.77-2.43,12.93-7.29,18.49
		c2.52,0.69,4.36,1.69,5.53,3c1.17,1.3,1.76,3.05,1.76,5.25V89.98z M108.29,61.08c0-4.86-1.5-9.38-4.51-13.54
		c-1-1.39-2.54-3.01-4.6-4.86v36.11c2-1.74,3.51-3.27,4.51-4.6C106.76,70.07,108.29,65.71,108.29,61.08z M108.29,89.2v-1.04
		c0-1.79-1.06-2.69-3.19-2.69h-5.93v6.42h5.93C107.23,91.89,108.29,91,108.29,89.2z" class="st3"></path>
</g>
<g>
	<path d="M56.98,73.86c0,6.94-1.48,12.48-4.43,16.62c-2.95,4.14-7.5,6.93-13.63,8.37v-7.46
		c3.91-0.81,6.74-2.63,8.49-5.47c1.75-2.83,2.62-6.86,2.62-12.06V32.29h6.94V73.86z" class="st2"></path>
	<path d="M79.46,32.29c-2.89,2.78-5.15,6.02-6.77,9.72c-1.62,3.7-2.43,7.44-2.43,11.2c0,3.59,1.27,8.39,3.82,14.41
		c2.55,6.02,3.82,10.56,3.82,13.63c0,5.61-1.39,10.91-4.17,15.89h-8.94c4.11-4.98,6.16-10.13,6.16-15.45
		c0-1.16-1.73-6.51-5.18-16.06c-1.64-4.51-2.46-8.65-2.46-12.41c0-3.99,0.52-7.71,1.56-11.16c1.04-3.44,2.72-6.7,5.04-9.77H79.46z" class="st2"></path>
	<path d="M112.45,88.2c0,2.72-0.96,4.89-2.86,6.51c-1.91,1.62-4.54,2.43-7.9,2.43H89.45V83.68h-5.99L79.29,77h10.16
		V29.42c0.81,0,2.78,0.81,5.9,2.43c4.63,2.43,8.33,5.38,11.11,8.85c3.99,5.03,5.99,10.97,5.99,17.8c0,6.77-2.43,12.93-7.29,18.49
		c2.52,0.69,4.36,1.69,5.53,3c1.17,1.3,1.76,3.05,1.76,5.25V88.2z M105.5,59.29c0-4.86-1.5-9.38-4.51-13.54
		c-1-1.39-2.54-3.01-4.6-4.86V77c2-1.74,3.51-3.27,4.51-4.6C103.97,68.29,105.5,63.92,105.5,59.29z M105.5,87.41v-1.04
		c0-1.79-1.06-2.69-3.19-2.69h-5.93v6.42h5.93C104.44,90.11,105.5,89.21,105.5,87.41z" class="st2"></path>
</g>
<g>
	<text class="st0 st4 st5" transform="matrix(1 0 0 1 137.6205 76.2571)">Just Smart Business</text>
</g>
<text class="st6 st4 st7" transform="matrix(1 0 0 1 214.1244 100.1101)">guiding you to success</text>
</svg>
